<svg xmlns="http://www.w3.org/2000/svg" width="1920" height="1080" viewBox="0 0 1920 1080">
<title>Compiling text-2.1.4: GHC on one core against AIHC on 12 workers</title>
<desc>Gantt chart of a measured build of the text library. GHC compiles 54 modules one at a time in 28.0 seconds. AIHC runs parse, resolve, type-check and backend tasks across 12 workers and finishes in 3.2 seconds.</desc>
<rect width="1920" height="1080" fill="#faf8f3"/>
<g font-family="Arial,sans-serif">
<text x="40" y="72" text-anchor="start" font-size="32" font-weight="650" fill="#5e5086">AI HASKELL COMPILER</text>
<text x="40" y="150" text-anchor="start" font-size="68" font-weight="750" fill="#292333">Compiling text-2.1.4 · 54 modules</text>
<text x="40" y="204" text-anchor="start" font-size="34" font-weight="500" fill="#6b655d">8.8× less wall-clock for the same 54 modules.</text>
<text x="40" y="276" text-anchor="start" font-size="46" font-weight="750" fill="#c48c41">GHC 9.12.4</text><text x="40" y="322" text-anchor="start" font-size="30" font-weight="500" fill="#6b655d">1 module at a time</text><rect x="330" y="300" width="1520" height="96" rx="10" fill="#f3ece1"/><rect x="330" y="300" width="63.130666666666684" height="96" rx="10" fill="#cfc7bb"/><rect x="393.1306666666667" y="300" width="13.750933333333307" height="96" fill="#e2b56e"/><rect x="406.8816" y="300" width="8.957866666666689" height="96" fill="#c48c41"/><rect x="415.8394666666667" y="300" width="3.3085333333333438" height="96" fill="#e2b56e"/><rect x="419.148" y="300" width="3.247733333333315" height="96" fill="#c48c41"/><rect x="422.39573333333334" y="300" width="5.578399999999988" height="96" fill="#e2b56e"/><rect x="427.9741333333333" y="300" width="3.313600000000008" height="96" fill="#c48c41"/><rect x="431.28773333333334" y="300" width="4.02800000000002" height="96" fill="#e2b56e"/><rect x="435.31573333333336" y="300" width="3.37439999999998" height="96" fill="#c48c41"/><rect x="438.69013333333334" y="300" width="21.862666666666712" height="96" fill="#e2b56e"/><rect x="460.55280000000005" y="300" width="410.1365333333333" height="96" fill="#c48c41"/><rect x="870.6893333333334" y="300" width="5.2439999999999145" height="96" fill="#e2b56e"/><rect x="875.9333333333333" y="300" width="2.7157333333333327" height="96" fill="#c48c41"/><rect x="878.6490666666666" y="300" width="7.427733333333435" height="96" fill="#e2b56e"/><rect x="886.0768" y="300" width="3.5010666666665884" height="96" fill="#c48c41"/><rect x="889.5778666666666" y="300" width="6.601866666666638" height="96" fill="#e2b56e"/><rect x="896.1797333333333" y="300" width="25.92106666666666" height="96" fill="#c48c41"/><rect x="922.1007999999999" y="300" width="11.263200000000097" height="96" fill="#e2b56e"/><rect x="933.364" y="300" width="9.094666666666626" height="96" fill="#c48c41"/><rect x="942.4586666666667" y="300" width="6.201599999999985" height="96" fill="#e2b56e"/><rect x="948.6602666666666" y="300" width="10.949066666666795" height="96" fill="#c48c41"/><rect x="959.6093333333334" y="300" width="14.865599999999858" height="96" fill="#e2b56e"/><rect x="974.4749333333333" y="300" width="56.538933333333375" height="96" fill="#c48c41"/><rect x="1031.0138666666667" y="300" width="46.32453333333342" height="96" fill="#e2b56e"/><rect x="1077.3384" y="300" width="5.659466666666503" height="96" fill="#c48c41"/><rect x="1082.9978666666666" y="300" width="3.055200000000241" height="96" fill="#e2b56e"/><rect x="1086.0530666666668" y="300" width="14.526133333333291" height="96" fill="#c48c41"/><rect x="1100.5792000000001" y="300" width="10.173866666666527" height="96" fill="#e2b56e"/><rect x="1110.7530666666667" y="300" width="33.89093333333312" height="96" fill="#c48c41"/><rect x="1144.6439999999998" y="300" width="5.19840000000022" height="96" fill="#e2b56e"/><rect x="1149.8424" y="300" width="17.27226666666661" height="96" fill="#c48c41"/><rect x="1167.1146666666666" y="300" width="9.413866666666763" height="96" fill="#e2b56e"/><rect x="1176.5285333333334" y="300" width="42.326933333333045" height="96" fill="#c48c41"/><rect x="1218.8554666666664" y="300" width="4.387733333333472" height="96" fill="#e2b56e"/><rect x="1223.2432" y="300" width="19.99306666666689" height="96" fill="#c48c41"/><rect x="1243.2362666666668" y="300" width="18.6250666666665" height="96" fill="#e2b56e"/><rect x="1261.8613333333333" y="300" width="16.720000000000255" height="96" fill="#c48c41"/><rect x="1278.5813333333335" y="300" width="138.29466666666644" height="96" fill="#e2b56e"/><rect x="1416.876" y="300" width="15.306400000000167" height="96" fill="#c48c41"/><rect x="1432.1824000000001" y="300" width="8.441066666666757" height="96" fill="#e2b56e"/><rect x="1440.623466666667" y="300" width="3.1007999999999356" height="96" fill="#c48c41"/><rect x="1443.7242666666668" y="300" width="11.942133333333004" height="96" fill="#e2b56e"/><rect x="1455.6663999999998" y="300" width="7.615199999999959" height="96" fill="#c48c41"/><rect x="1463.2815999999998" y="300" width="7.995200000000295" height="96" fill="#e2b56e"/><rect x="1471.2768" y="300" width="104.18586666666647" height="96" fill="#c48c41"/><rect x="1575.4626666666666" y="300" width="16.405866666666952" height="96" fill="#e2b56e"/><rect x="1591.8685333333335" y="300" width="25.287733333333108" height="96" fill="#c48c41"/><rect x="1617.1562666666666" y="300" width="8.111733333333405" height="96" fill="#e2b56e"/><rect x="1625.268" y="300" width="28.21120000000019" height="96" fill="#c48c41"/><rect x="1653.4792000000002" y="300" width="2.9285333333330072" height="96" fill="#e2b56e"/><rect x="1656.4077333333332" y="300" width="2.964000000000169" height="96" fill="#c48c41"/><rect x="1659.3717333333334" y="300" width="41.83039999999983" height="96" fill="#e2b56e"/><rect x="1701.2021333333332" y="300" width="29.47786666666684" height="96" fill="#c48c41"/><rect x="1730.68" y="300" width="3.977333333333263" height="96" fill="#e2b56e"/><rect x="1734.6573333333333" y="300" width="12.073866666666618" height="96" fill="#c48c41"/><text x="330" y="292" text-anchor="start" font-size="36" font-weight="600" fill="#292333">All 54 modules compiled. Linking…</text><text x="1850" y="292" text-anchor="end" font-size="54" font-weight="750" fill="#c48c41">28.0 s</text>
<text x="40" y="514" text-anchor="start" font-size="46" font-weight="750" fill="#5e5086">AIHC</text><text x="40" y="560" text-anchor="start" font-size="30" font-weight="500" fill="#6b655d">12 workers</text><rect x="40" y="596" width="30" height="30" rx="6" fill="#ded5ee"/><text x="84" y="620" text-anchor="start" font-size="30" font-weight="500" fill="#292333">parse</text><rect x="40" y="640" width="30" height="30" rx="6" fill="#bfaedd"/><text x="84" y="664" text-anchor="start" font-size="30" font-weight="500" fill="#292333">resolve</text><rect x="40" y="684" width="30" height="30" rx="6" fill="#8f77ba"/><text x="84" y="708" text-anchor="start" font-size="30" font-weight="500" fill="#292333">type-check</text><rect x="40" y="728" width="30" height="30" rx="6" fill="#5e5086"/><text x="84" y="752" text-anchor="start" font-size="30" font-weight="500" fill="#292333">backend</text><rect x="330" y="540" width="1520" height="30" rx="6" fill="#f0eafa"/><rect x="330" y="574" width="1520" height="30" rx="6" fill="#f0eafa"/><rect x="330" y="608" width="1520" height="30" rx="6" fill="#f0eafa"/><rect x="330" y="642" width="1520" height="30" rx="6" fill="#f0eafa"/><rect x="330" y="676" width="1520" height="30" rx="6" fill="#f0eafa"/><rect x="330" y="710" width="1520" height="30" rx="6" fill="#f0eafa"/><rect x="330" y="744" width="1520" height="30" rx="6" fill="#f0eafa"/><rect x="330" y="778" width="1520" height="30" rx="6" fill="#f0eafa"/><rect x="330" y="812" width="1520" height="30" rx="6" fill="#f0eafa"/><rect x="330" y="846" width="1520" height="30" rx="6" fill="#f0eafa"/><rect x="330" y="880" width="1520" height="30" rx="6" fill="#f0eafa"/><rect x="330" y="914" width="1520" height="30" rx="6" fill="#f0eafa"/><rect x="330" y="608" width="0.7346666666666692" height="30" fill="#cfc7bb"/><rect x="330.8410666666667" y="608" width="0.6282666666666614" height="30" fill="#cfc7bb"/><rect x="331.47946666666667" y="608" width="0.45093333333335295" height="30" fill="#cfc7bb"/><rect x="332.2496" y="744" width="1.5200000000000387" height="30" fill="#ded5ee"/><rect x="332.4016" y="574" width="0.4560000000000173" height="30" fill="#ded5ee"/><rect x="332.41173333333336" y="608" width="4.625866666666639" height="30" fill="#ded5ee"/><rect x="332.4168" y="710" width="0.962666666666621" height="30" fill="#ded5ee"/><rect x="332.4928" y="778" width="0.4762666666666746" height="30" fill="#ded5ee"/><rect x="332.9741333333333" y="880" width="1.0640000000000214" height="30" fill="#ded5ee"/><rect x="333.21226666666666" y="778" width="0.4002666666666528" height="30" fill="#ded5ee"/><rect x="333.44533333333334" y="574" width="0.46613333333334594" height="30" fill="#ded5ee"/><rect x="337.448" y="608" width="0.5573333333333608" height="30" fill="#bfaedd"/><rect x="337.448" y="880" width="0.5776000000000181" height="30" fill="#bfaedd"/><rect x="337.448" y="778" width="0.5573333333333608" height="30" fill="#bfaedd"/><rect x="337.448" y="540" width="0.8106666666666911" height="30" fill="#bfaedd"/><rect x="337.448" y="846" width="0.5826666666666824" height="30" fill="#bfaedd"/><rect x="337.448" y="744" width="0.5522666666666964" height="30" fill="#bfaedd"/><rect x="337.448" y="914" width="0.5624000000000251" height="30" fill="#bfaedd"/><rect x="337.448" y="676" width="2.1026666666666642" height="30" fill="#bfaedd"/><rect x="337.448" y="710" width="0.5421333333333678" height="30" fill="#bfaedd"/><rect x="337.448" y="812" width="0.5320000000000391" height="30" fill="#bfaedd"/><rect x="337.448" y="574" width="0.5522666666666964" height="30" fill="#bfaedd"/><rect x="337.448" y="642" width="0.5725333333333538" height="30" fill="#bfaedd"/><rect x="337.9952" y="812" width="6.7386666666666315" height="30" fill="#8f77ba"/><rect x="338.00533333333334" y="710" width="11.050399999999968" height="30" fill="#8f77ba"/><rect x="338.2434666666667" y="574" width="10.17386666666664" height="30" fill="#8f77ba"/><rect x="338.2536" y="744" width="8.20799999999997" height="30" fill="#8f77ba"/><rect x="338.25866666666667" y="608" width="12.043466666666689" height="30" fill="#8f77ba"/><rect x="338.44106666666664" y="778" width="11.926933333333352" height="30" fill="#8f77ba"/><rect x="338.46133333333336" y="914" width="8.13706666666667" height="30" fill="#8f77ba"/><rect x="338.52213333333333" y="642" width="8.116800000000012" height="30" fill="#8f77ba"/><rect x="338.5272" y="880" width="11.68373333333335" height="30" fill="#8f77ba"/><rect x="338.53226666666666" y="846" width="11.531733333333364" height="30" fill="#8f77ba"/><rect x="338.5424" y="540" width="8.304266666666706" height="30" fill="#8f77ba"/><rect x="339.5557333333333" y="676" width="38.58266666666668" height="30" fill="#8f77ba"/><rect x="345.42293333333333" y="812" width="0.5928000000000111" height="30" fill="#bfaedd"/><rect x="346.3045333333333" y="812" width="0.4610666666666816" height="30" fill="#bfaedd"/><rect x="346.644" y="744" width="0.9879999999999995" height="30" fill="#bfaedd"/><rect x="346.65413333333333" y="642" width="0.9879999999999995" height="30" fill="#bfaedd"/><rect x="346.7554666666667" y="914" width="0.8461333333333414" height="30" fill="#bfaedd"/><rect x="346.8466666666667" y="540" width="1.2970666666666375" height="30" fill="#5e5086"/><rect x="347.57626666666664" y="812" width="0.4762666666666746" height="30" fill="#bfaedd"/><rect x="347.63706666666667" y="744" width="0.4053333333333171" height="30" fill="#bfaedd"/><rect x="348.2298666666667" y="642" width="0.8309333333332916" height="30" fill="#bfaedd"/><rect x="348.3464" y="812" width="0.7093333333332907" height="30" fill="#5e5086"/><rect x="348.42746666666665" y="540" width="2.2749333333333652" height="30" fill="#5e5086"/><rect x="349.05066666666664" y="574" width="2.0114666666667063" height="30" fill="#5e5086"/><rect x="349.0608" y="744" width="0.5522666666666964" height="30" fill="#5e5086"/><rect x="349.0810666666667" y="710" width="4.0026666666666415" height="30" fill="#8f77ba"/><rect x="349.1773333333333" y="812" width="4.701866666666717" height="30" fill="#8f77ba"/><rect x="349.1824" y="642" width="8.035733333333383" height="30" fill="#5e5086"/><rect x="349.52186666666665" y="914" width="0.4408000000000243" height="30" fill="#bfaedd"/><rect x="349.61306666666667" y="744" width="0.5117333333333249" height="30" fill="#bfaedd"/><rect x="350.21093333333334" y="880" width="2.9943999999999846" height="30" fill="#5e5086"/><rect x="350.3528" y="608" width="2.7106666666666683" height="30" fill="#8f77ba"/><rect x="350.368" y="744" width="4.093866666666656" height="30" fill="#8f77ba"/><rect x="350.37306666666666" y="778" width="0.7296000000000049" height="30" fill="#bfaedd"/><rect x="350.3781333333333" y="914" width="4.641066666666688" height="30" fill="#5e5086"/><rect x="350.3933333333333" y="846" width="0.5472000000000321" height="30" fill="#5e5086"/><rect x="351.4370666666667" y="846" width="0.9626666666666779" height="30" fill="#bfaedd"/><rect x="352.1413333333333" y="540" width="0.5320000000000391" height="30" fill="#bfaedd"/><rect x="352.1514666666667" y="574" width="0.5370666666666466" height="30" fill="#bfaedd"/><rect x="352.63786666666664" y="778" width="0.4154666666667026" height="30" fill="#bfaedd"/><rect x="353.06346666666667" y="778" width="0.5269333333333179" height="30" fill="#bfaedd"/><rect x="353.07866666666666" y="608" width="0.4864000000000033" height="30" fill="#5e5086"/><rect x="353.0888" y="710" width="1.4794666666666672" height="30" fill="#5e5086"/><rect x="353.8792" y="812" width="1.9050666666666416" height="30" fill="#8f77ba"/><rect x="353.8842666666667" y="608" width="1.894933333333313" height="30" fill="#5e5086"/><rect x="354.0008" y="778" width="0.5623999999999683" height="30" fill="#bfaedd"/><rect x="354.472" y="744" width="3.0552000000000135" height="30" fill="#8f77ba"/><rect x="354.472" y="880" width="2.0165333333333706" height="30" fill="#5e5086"/><rect x="355.78933333333333" y="812" width="0.4762666666666746" height="30" fill="#5e5086"/><rect x="357.77546666666666" y="846" width="6.475200000000029" height="30" fill="#8f77ba"/><rect x="357.77546666666666" y="880" width="3.916533333333348" height="30" fill="#8f77ba"/><rect x="357.77546666666666" y="540" width="4.23066666666665" height="30" fill="#8f77ba"/><rect x="357.77546666666666" y="914" width="5.862133333333361" height="30" fill="#8f77ba"/><rect x="357.77546666666666" y="710" width="4.565066666666667" height="30" fill="#8f77ba"/><rect x="357.77546666666666" y="778" width="10.969333333333338" height="30" fill="#5e5086"/><rect x="361.70213333333334" y="880" width="1.2717333333333158" height="30" fill="#5e5086"/><rect x="362.01626666666664" y="540" width="6.905866666666725" height="30" fill="#5e5086"/><rect x="362.3557333333333" y="710" width="6.733600000000024" height="30" fill="#8f77ba"/><rect x="362.36586666666665" y="642" width="4.656266666666681" height="30" fill="#8f77ba"/><rect x="362.5482666666667" y="812" width="5.846933333333311" height="30" fill="#8f77ba"/><rect x="362.5482666666667" y="744" width="9.221333333333291" height="30" fill="#5e5086"/><rect x="363.6984" y="914" width="8.902133333333325" height="30" fill="#8f77ba"/><rect x="363.75413333333336" y="574" width="4.965333333333319" height="30" fill="#5e5086"/><rect x="364.25573333333335" y="846" width="5.8367999999999824" height="30" fill="#8f77ba"/><rect x="364.3165333333333" y="880" width="7.757066666666674" height="30" fill="#5e5086"/><rect x="367.03226666666666" y="642" width="2.6498666666666963" height="30" fill="#5e5086"/><rect x="368.4205333333333" y="812" width="4.098933333333321" height="30" fill="#5e5086"/><rect x="369.0944" y="710" width="0.7144000000000119" height="30" fill="#5e5086"/><rect x="370.1432" y="846" width="2.0570666666666853" height="30" fill="#5e5086"/><rect x="372.6056" y="914" width="7.0680000000000405" height="30" fill="#5e5086"/><rect x="378.1485333333333" y="812" width="5.081866666666713" height="30" fill="#8f77ba"/><rect x="378.1485333333333" y="642" width="3.050133333333349" height="30" fill="#8f77ba"/><rect x="378.1485333333333" y="778" width="110.36719999999997" height="30" fill="#5e5086"/><rect x="381.2088" y="846" width="15.534400000000005" height="30" fill="#5e5086"/><rect x="383.23546666666664" y="812" width="3.44026666666673" height="30" fill="#8f77ba"/><rect x="383.23546666666664" y="574" width="21.999466666666706" height="30" fill="#5e5086"/><rect x="386.6858666666667" y="710" width="2.376266666666652" height="30" fill="#8f77ba"/><rect x="386.6858666666667" y="914" width="7.8583999999999605" height="30" fill="#5e5086"/><rect x="389.18373333333335" y="710" width="5.933066666666662" height="30" fill="#8f77ba"/><rect x="389.18373333333335" y="642" width="5.963466666666648" height="30" fill="#5e5086"/><rect x="389.18373333333335" y="880" width="4.382666666666637" height="30" fill="#8f77ba"/><rect x="393.57146666666665" y="880" width="3.997600000000034" height="30" fill="#8f77ba"/><rect x="393.57146666666665" y="744" width="6.809599999999989" height="30" fill="#5e5086"/><rect x="395.18266666666665" y="608" width="15.448266666666711" height="30" fill="#5e5086"/><rect x="397.5792" y="880" width="3.202133333333336" height="30" fill="#8f77ba"/><rect x="397.9744" y="642" width="3.8050666666666757" height="30" fill="#5e5086"/><rect x="400.7914666666667" y="880" width="11.967466666666667" height="30" fill="#8f77ba"/><rect x="400.7914666666667" y="846" width="2.857599999999991" height="30" fill="#5e5086"/><rect x="412.7690666666667" y="744" width="2.0114666666666494" height="30" fill="#8f77ba"/><rect x="412.7690666666667" y="540" width="2.1077333333333286" height="30" fill="#8f77ba"/><rect x="412.7690666666667" y="880" width="6.166133333333335" height="30" fill="#8f77ba"/><rect x="412.7690666666667" y="642" width="3.59226666666666" height="30" fill="#8f77ba"/><rect x="412.7690666666667" y="608" width="38.05066666666664" height="30" fill="#5e5086"/><rect x="414.79066666666665" y="744" width="1.150133333333315" height="30" fill="#5e5086"/><rect x="414.88693333333333" y="540" width="4.093866666666656" height="30" fill="#8f77ba"/><rect x="414.88693333333333" y="812" width="4.088799999999992" height="30" fill="#8f77ba"/><rect x="414.88693333333333" y="846" width="1.1957333333333509" height="30" fill="#8f77ba"/><rect x="414.88693333333333" y="710" width="3.9114666666666835" height="30" fill="#5e5086"/><rect x="416.37146666666666" y="744" width="6.3434666666667" height="30" fill="#5e5086"/><rect x="418.9656" y="880" width="2.9336000000000126" height="30" fill="#8f77ba"/><rect x="418.9656" y="642" width="6.885600000000011" height="30" fill="#5e5086"/><rect x="418.98586666666665" y="812" width="4.717066666666653" height="30" fill="#5e5086"/><rect x="418.9909333333333" y="540" width="2.756266666666704" height="30" fill="#8f77ba"/><rect x="418.9909333333333" y="574" width="2.7410666666666543" height="30" fill="#5e5086"/><rect x="421.7472" y="540" width="8.501866666666615" height="30" fill="#8f77ba"/><rect x="421.7522666666666" y="574" width="1.3680000000000518" height="30" fill="#5e5086"/><rect x="421.9042666666667" y="880" width="2.0114666666666494" height="30" fill="#5e5086"/><rect x="430.25919999999996" y="540" width="2.796800000000019" height="30" fill="#8f77ba"/><rect x="430.25919999999996" y="574" width="2.163466666666693" height="30" fill="#8f77ba"/><rect x="430.25919999999996" y="880" width="2.7157333333333895" height="30" fill="#8f77ba"/><rect x="430.25919999999996" y="812" width="21.903200000000027" height="30" fill="#5e5086"/><rect x="432.4328" y="574" width="1.3122666666666873" height="30" fill="#5e5086"/><rect x="432.9850666666667" y="880" width="4.646133333333296" height="30" fill="#5e5086"/><rect x="433.06106666666665" y="540" width="0.5167999999999893" height="30" fill="#8f77ba"/><rect x="433.0813333333333" y="710" width="3.5568000000000097" height="30" fill="#5e5086"/><rect x="433.58293333333336" y="540" width="1.5909333333333393" height="30" fill="#8f77ba"/><rect x="435.18906666666663" y="744" width="4.671466666666674" height="30" fill="#8f77ba"/><rect x="439.8858666666667" y="676" width="3.6125333333333174" height="30" fill="#8f77ba"/><rect x="439.8858666666667" y="540" width="4.114133333333314" height="30" fill="#5e5086"/><rect x="443.50853333333333" y="676" width="9.018666666666661" height="30" fill="#5e5086"/><rect x="488.5208" y="778" width="2.5282666666666387" height="30" fill="#cfc7bb"/><text x="330" y="530" text-anchor="start" font-size="36" font-weight="600" fill="#292333">All 54 modules compiled and archived.</text><text x="1850" y="530" text-anchor="end" font-size="54" font-weight="750" fill="#5e5086">3.2 s</text><text x="1210.5245333333332" y="690" text-anchor="middle" font-size="88" font-weight="750" fill="#5e5086">8.8× less wall-clock</text><text x="1210.5245333333332" y="755" text-anchor="middle" font-size="44" font-weight="600" fill="#292333">3.2 s against 28.0 s</text><text x="1210.5245333333332" y="808" text-anchor="middle" font-size="30" font-weight="500" fill="#6b655d">Idle rows are idle cores. GHC left 11 of them idle for the whole build.</text>
<line x1="330" y1="962" x2="1850" y2="962" stroke="#b8afa1" stroke-width="3"/><line x1="330" y1="962" x2="330" y2="976" stroke="#b8afa1" stroke-width="3"/><text x="330" y="1014" text-anchor="middle" font-size="30" font-weight="500" fill="#6b655d">0 s</text><line x1="583.3333333333334" y1="962" x2="583.3333333333334" y2="976" stroke="#b8afa1" stroke-width="3"/><text x="583.3333333333334" y="1014" text-anchor="middle" font-size="30" font-weight="500" fill="#6b655d">5 s</text><line x1="836.6666666666667" y1="962" x2="836.6666666666667" y2="976" stroke="#b8afa1" stroke-width="3"/><text x="836.6666666666667" y="1014" text-anchor="middle" font-size="30" font-weight="500" fill="#6b655d">10 s</text><line x1="1090" y1="962" x2="1090" y2="976" stroke="#b8afa1" stroke-width="3"/><text x="1090" y="1014" text-anchor="middle" font-size="30" font-weight="500" fill="#6b655d">15 s</text><line x1="1343.3333333333335" y1="962" x2="1343.3333333333335" y2="976" stroke="#b8afa1" stroke-width="3"/><text x="1343.3333333333335" y="1014" text-anchor="middle" font-size="30" font-weight="500" fill="#6b655d">20 s</text><line x1="1596.6666666666667" y1="962" x2="1596.6666666666667" y2="976" stroke="#b8afa1" stroke-width="3"/><text x="1596.6666666666667" y="1014" text-anchor="middle" font-size="30" font-weight="500" fill="#6b655d">25 s</text><line x1="1850" y1="962" x2="1850" y2="976" stroke="#b8afa1" stroke-width="3"/><text x="1850" y="1014" text-anchor="middle" font-size="30" font-weight="500" fill="#6b655d">30 s</text>
<text x="40" y="1050" text-anchor="start" font-size="28" font-weight="500" fill="#6b655d">Apple M4 Pro, 12 cores · GHC: cabal build, -O0, no -j · AIHC: default, -O0 · real traces, medians of 5 runs</text>
</g></svg>